<svg xmlns="http://www.w3.org/2000/svg" x="0px" y="0px" width="25" height="25" viewBox="0 0 172 172" style="fill: rgb(0, 0, 0);"><g fill="none" fill-rule="nonzero" stroke="none" stroke-width="1" stroke-linecap="butt" stroke-linejoin="miter" stroke-miterlimit="10" stroke-dashoffset="0" font-family="none" font-weight="none" font-size="none" text-anchor="none" style="mix-blend-mode: normal;"><path d="M0,172v-172h172v172z" fill="none"></path><g><path d="M2.65391,86c0,-46.02344 37.32266,-83.34609 83.34609,-83.34609c46.02344,0 83.34609,37.32266 83.34609,83.34609c0,46.02344 -37.32266,83.34609 -83.34609,83.34609c-46.02344,0 -83.34609,-37.32266 -83.34609,-83.34609z" fill="fff"></path><path d="M121.77734,75.85469c-15.31875,0 -30.60391,0 -45.92266,0c3.89688,-3.89687 7.79375,-7.79375 11.69063,-11.69062c9.00312,-9.00313 -5.00547,-22.91094 -14.04219,-13.87422c-9.50703,9.50703 -19.01406,19.01406 -28.52109,28.52109c-3.82969,3.82969 -3.72891,10.17891 0.06719,13.94141c9.50703,9.50703 19.01406,19.01406 28.52109,28.52109c9.00312,9.00313 22.91094,-5.00547 13.87422,-14.04219c-3.86328,-3.86328 -7.76016,-7.76016 -11.62344,-11.62344c15.25156,0 30.50312,0 45.75469,0c12.79922,0 12.9,-19.75312 0.20156,-19.75312z" fill="#000"></path></g></g></svg>