<?xml version="1.0" encoding="UTF-8"?>
<svg xmlns="http://www.w3.org/2000/svg" xmlns:xlink="http://www.w3.org/1999/xlink" width="50pt" height="50pt" viewBox="0 0 50 50" version="1.1">
<g id="surface1754196">
<path style=" stroke:none;fill-rule:nonzero;fill:rgb(100%,100%,100%);fill-opacity:1;" d="M 39.8125 2 C 37.160156 2 34.925781 4.019531 34.625 6.59375 C 34.574219 6.585938 34.519531 6.570312 34.46875 6.5625 C 24.414062 4.847656 19.234375 17.230469 17 18.90625 C 15.972656 19.660156 13.277344 19.796875 10.625 20.1875 C 9.296875 20.382812 7.972656 20.675781 6.8125 21.34375 C 5.652344 22.011719 4.671875 23.132812 4.3125 24.6875 L 4.34375 24.6875 C 3.890625 25.746094 3.96875 26.96875 4.375 28.1875 C 4.832031 29.554688 5.703125 30.992188 6.90625 32.46875 C 9.238281 35.332031 12.839844 38.359375 17.28125 41.09375 C 18.199219 44.5 21.296875 47 25 47 C 26.109375 47 27.167969 46.777344 28.125 46.375 C 31.242188 47.421875 34.023438 48 36.40625 48 C 38.722656 48 40.664062 47.390625 41.65625 45.84375 L 41.6875 45.84375 C 41.726562 45.796875 41.746094 45.734375 41.78125 45.6875 C 42.644531 44.582031 43.320312 43.289062 43.25 41.65625 C 43.175781 39.953125 42.390625 38 40.75 35.28125 C 40.132812 34.253906 40.300781 32.632812 41 30.5 C 41.699219 28.367188 42.859375 25.851562 43.75 23.25 C 44.640625 20.648438 45.292969 17.914062 44.78125 15.25 C 44.519531 13.886719 43.9375 12.558594 42.96875 11.34375 C 44.203125 10.355469 45 8.867188 45 7.1875 C 45 4.335938 42.664062 2 39.8125 2 Z M 39.8125 4 C 41.5625 4 43 5.4375 43 7.1875 C 43 8.328125 42.460938 9.285156 41.5625 9.90625 C 40.863281 9.304688 40.039062 8.734375 39.09375 8.21875 C 39.082031 8.21875 39.074219 8.21875 39.0625 8.21875 C 38.207031 7.753906 37.386719 7.402344 36.59375 7.125 C 36.628906 5.40625 38.085938 4 39.8125 4 Z M 32.28125 8.25 C 33.976562 8.253906 35.898438 8.757812 38.125 9.96875 C 41.183594 11.640625 42.410156 13.523438 42.8125 15.625 C 43.214844 17.726562 42.71875 20.164062 41.875 22.625 C 41.03125 25.085938 39.851562 27.566406 39.09375 29.875 C 38.335938 32.183594 37.898438 34.4375 39.03125 36.3125 C 39.695312 37.410156 40.152344 38.320312 40.5 39.125 C 40.054688 38.472656 39.550781 37.800781 38.96875 37.125 C 36.289062 34.03125 32.167969 30.738281 27.1875 27.84375 C 21.433594 24.515625 15.816406 22.515625 11.53125 22.09375 C 13.832031 21.828125 16.375 21.828125 18.1875 20.5 C 21.960938 17.667969 24.933594 8.230469 32.28125 8.25 Z M 9.90625 24 C 13.679688 24 19.898438 25.925781 26.1875 29.5625 C 31.007812 32.367188 34.996094 35.582031 37.46875 38.4375 C 38.703125 39.863281 39.558594 41.183594 39.96875 42.28125 C 40.371094 43.363281 40.332031 44.144531 40.03125 44.6875 C 39.59375 45.441406 38.425781 46 36.40625 46 C 34.722656 46 32.679688 45.621094 30.34375 44.9375 C 31.96875 43.476562 33 41.367188 33 39 C 33 34.570312 29.429688 31 25 31 C 20.71875 31 17.261719 34.339844 17.03125 38.5625 C 13.347656 36.140625 10.347656 33.53125 8.4375 31.1875 C 7.339844 29.839844 6.625 28.589844 6.28125 27.5625 C 5.9375 26.535156 5.988281 25.824219 6.28125 25.3125 C 6.726562 24.570312 7.902344 24 9.90625 24 Z M 25 33 C 28.371094 33 31 35.628906 31 39 C 31 42.371094 28.371094 45 25 45 C 21.628906 45 19 42.371094 19 39 C 19 35.628906 21.628906 33 25 33 Z M 25 33 "/>
</g>
</svg>
