<?xml version="1.0"?><svg fill="#000000" xmlns="http://www.w3.org/2000/svg" viewBox="0 0 128 128" width="30px" height="30px">    <path d="M 64.753906 6.0039062 C 50.631631 5.8279297 36.457031 10.760156 25.300781 20.800781 C 24.000781 22.000781 23.999219 23.999219 25.199219 25.199219 C 26.299219 26.299219 28.100781 26.400781 29.300781 25.300781 C 38.900781 16.700781 51.1 12 64 12 C 75.2 12 85.900781 15.499609 94.800781 22.099609 L 90.099609 22.099609 C 88.499609 22.099609 87.000391 23.300391 86.900391 24.900391 C 86.800391 26.600391 88.200391 28.099609 89.900391 28.099609 L 102.90039 28.099609 C 104.60039 28.099609 105.90039 26.799609 105.90039 25.099609 L 105.90039 12.300781 C 105.90039 10.700781 104.69961 9.1996094 103.09961 9.0996094 C 101.39961 8.9996094 99.900391 10.399609 99.900391 12.099609 L 99.900391 18.400391 C 89.634766 10.291016 77.214737 6.1591797 64.753906 6.0039062 z M 114.25977 38.828125 C 113.86914 38.8375 113.47461 38.924609 113.09961 39.099609 C 111.59961 39.799609 110.89961 41.499609 111.59961 43.099609 C 120.29961 62.899609 116.10078 85.600391 100.80078 100.90039 C 90.900781 110.60039 77.9 116 64 116 C 52.8 116 42.099219 112.50039 33.199219 105.90039 L 38.099609 105.90039 C 39.799609 105.90039 41.099609 104.60039 41.099609 102.90039 C 41.099609 101.20039 39.799609 99.900391 38.099609 99.900391 L 25.099609 99.900391 C 23.399609 99.900391 22.099609 101.20039 22.099609 102.90039 L 22.099609 115.90039 C 22.099609 117.60039 23.399609 118.90039 25.099609 118.90039 C 26.799609 118.90039 28.099609 117.60039 28.099609 115.90039 L 28.099609 109.59961 C 38.599609 117.79961 51.3 122 64 122 C 78.9 122 93.7 116.3 105 105 C 122.1 87.9 126.79961 62.699609 117.09961 40.599609 C 116.57461 39.474609 115.43164 38.8 114.25977 38.828125 z M 13.341797 39.585938 C 12.174609 39.6 11.049609 40.275391 10.599609 41.400391 C 8.1996094 47.200391 6.6992187 53.3 6.1992188 59.5 C 6.0992188 61.2 7.3 62.599219 9 62.699219 L 9.1992188 62.699219 C 10.799219 62.699219 12.099219 61.500391 12.199219 59.900391 C 12.599219 54.300391 13.999609 48.799219 16.099609 43.699219 C 16.699609 42.199219 16 40.500781 14.5 39.800781 C 14.125 39.650781 13.730859 39.58125 13.341797 39.585938 z M 11.5 77.699219 A 2.9000001 2.9000001 0 0 0 8.5996094 80.599609 A 2.9000001 2.9000001 0 0 0 11.5 83.5 A 2.9000001 2.9000001 0 0 0 14.400391 80.599609 A 2.9000001 2.9000001 0 0 0 11.5 77.699219 z"/></svg>