<svg xmlns="http://www.w3.org/2000/svg" height="15pt" version="1.1" viewBox="-44 0 512 512.00001" width="15pt">
<g id="surface1">
<path d="M 246.105469 272.421875 L 337.082031 181.136719 L 297.714844 141.769531 L 206.429688 232.746094 L 188.175781 290.675781 Z M 414.1875 119.535156 L 414.1875 366.96875 C 414.1875 391.75 394.097656 411.84375 369.3125 411.84375 L 145.746094 411.84375 C 120.960938 411.84375 100.871094 391.75 100.871094 366.96875 L 100.871094 55.382812 C 100.871094 30.597656 120.960938 10.503906 145.746094 10.503906 L 310.464844 10.503906 L 310.464844 84.855469 C 310.464844 104.03125 325.964844 119.535156 345.140625 119.535156 Z M 414.1875 119.535156 " style=" stroke:none;fill-rule:nonzero;fill:rgb(0%,67.45098%,91.764706%);fill-opacity:1;" />
<path d="M 310.464844 10.503906 L 414.1875 119.535156 L 345.140625 119.535156 C 325.964844 119.535156 310.464844 104.03125 310.464844 84.859375 Z M 310.464844 10.503906 " style=" stroke:none;fill-rule:nonzero;fill:rgb(0%,93.72549%,81.960784%);fill-opacity:1;" />
<path d="M 145.746094 411.742188 L 369.3125 411.742188 C 369.3125 436.527344 349.21875 456.621094 324.4375 456.621094 L 100.871094 456.621094 C 76.085938 456.621094 55.992188 436.527344 55.992188 411.742188 L 55.992188 100.257812 C 55.992188 75.472656 76.085938 55.382812 100.871094 55.382812 L 100.871094 366.867188 C 100.871094 391.648438 120.960938 411.742188 145.746094 411.742188 Z M 145.746094 411.742188 " style=" stroke:none;fill-rule:nonzero;fill:rgb(99.607843%,85.882353%,25.490196%);fill-opacity:1;" />
<path d="M 337.082031 181.136719 L 246.105469 272.421875 L 206.429688 232.746094 L 297.714844 141.769531 Z M 337.082031 181.136719 " style=" stroke:none;fill-rule:nonzero;fill:rgb(0%,67.45098%,91.764706%);fill-opacity:1;" />
<path d="M 100.871094 456.617188 L 323.417969 456.617188 C 323.417969 481.402344 303.324219 501.496094 278.539062 501.496094 L 54.972656 501.496094 C 30.1875 501.496094 10.097656 481.402344 10.097656 456.617188 L 10.097656 145.132812 C 10.097656 120.351562 30.1875 100.257812 54.972656 100.257812 L 55.992188 100.257812 L 55.992188 411.742188 C 55.992188 436.527344 76.085938 456.617188 100.871094 456.617188 Z M 100.871094 456.617188 " style=" stroke:none;fill-rule:nonzero;fill:rgb(0%,93.72549%,81.960784%);fill-opacity:1;" />
<path d="M 246.105469 272.421875 L 188.175781 290.675781 L 206.429688 232.746094 Z M 246.105469 272.421875 " style=" stroke:none;fill-rule:nonzero;fill:rgb(0%,67.45098%,91.764706%);fill-opacity:1;" />
<path d="M 317.808594 3.265625 C 315.867188 1.222656 313.21875 0 310.464844 0 L 145.746094 0 C 118.617188 0 95.972656 19.886719 91.488281 45.792969 C 68.640625 49.773438 50.691406 67.824219 46.710938 90.570312 C 20.296875 94.648438 0 117.597656 0 145.132812 L 0 456.617188 C 0 487.011719 24.582031 512 54.972656 512 L 278.539062 512 C 305.667969 512 328.210938 492.214844 332.800781 466.308594 C 356.15625 462.738281 374.617188 444.378906 378.695312 421.125 C 404.601562 416.636719 424.289062 393.996094 424.289062 366.761719 L 424.289062 119.433594 C 424.289062 116.78125 423.371094 114.230469 421.535156 112.292969 Z M 320.253906 36.003906 L 390.425781 109.132812 L 345.140625 109.132812 C 331.679688 109.132812 320.253906 98.320312 320.253906 84.753906 Z M 278.539062 491.601562 L 54.972656 491.601562 C 35.796875 491.601562 20.398438 475.792969 20.398438 456.617188 L 20.398438 145.132812 C 20.398438 129.222656 30.597656 115.761719 45.894531 111.679688 L 45.894531 411.742188 C 45.894531 442.136719 70.476562 467.125 100.871094 467.125 L 311.6875 467.125 C 307.300781 481.402344 294.144531 491.601562 278.539062 491.601562 Z M 324.4375 446.726562 L 100.871094 446.726562 C 81.796875 446.726562 66.292969 430.917969 66.292969 411.742188 L 66.292969 100.257812 C 66.292969 84.652344 76.492188 71.496094 90.773438 67.109375 L 90.773438 366.867188 C 90.773438 397.257812 115.351562 422.246094 145.746094 422.246094 L 357.582031 422.246094 C 353.199219 436.527344 340.042969 446.726562 324.4375 446.726562 Z M 369.3125 401.847656 L 145.746094 401.847656 C 126.671875 401.847656 111.171875 386.039062 111.171875 366.867188 L 111.171875 55.382812 C 111.171875 36.308594 126.570312 20.398438 145.746094 20.398438 L 299.855469 20.398438 L 299.855469 84.753906 C 299.855469 109.539062 320.355469 129.53125 345.140625 129.53125 L 403.886719 129.53125 L 403.886719 366.867188 C 403.886719 386.039062 388.488281 401.847656 369.3125 401.847656 Z M 369.3125 401.847656 " style=" stroke:none;fill-rule:nonzero;fill:rgb(3.137255%,21.960784%,38.823529%);fill-opacity:1;" />
<path d="M 341.46875 336.574219 L 173.589844 336.574219 C 167.980469 336.574219 163.390625 341.164062 163.390625 346.773438 C 163.390625 352.382812 167.980469 356.972656 173.589844 356.972656 L 341.570312 356.972656 C 347.179688 356.972656 351.769531 352.382812 351.769531 346.773438 C 351.769531 341.164062 347.179688 336.574219 341.46875 336.574219 Z M 341.46875 336.574219 " style=" stroke:none;fill-rule:nonzero;fill:rgb(3.137255%,21.960784%,38.823529%);fill-opacity:1;" />
<path d="M 188.175781 300.875 C 189.195312 300.875 190.214844 300.671875 191.234375 300.367188 L 249.167969 282.109375 C 250.695312 281.601562 252.125 280.785156 253.347656 279.558594 L 344.324219 188.277344 C 348.300781 184.300781 348.300781 177.875 344.324219 173.898438 L 304.957031 134.527344 C 300.980469 130.550781 294.554688 130.550781 290.574219 134.527344 L 199.292969 225.503906 C 198.171875 226.625 197.253906 228.054688 196.742188 229.6875 L 178.382812 287.617188 C 177.261719 291.289062 178.179688 295.164062 180.933594 297.917969 C 182.871094 299.855469 185.523438 300.875 188.175781 300.875 Z M 211.125 251.816406 L 227.035156 267.730469 L 203.78125 275.070312 Z M 297.714844 156.148438 L 322.703125 181.136719 L 246.105469 257.9375 L 220.914062 232.746094 Z M 297.714844 156.148438 " style=" stroke:none;fill-rule:nonzero;fill:rgb(3.137255%,21.960784%,38.823529%);fill-opacity:1;" />
</g>
</svg>